<?xml version="1.0" standalone="no"?><!DOCTYPE svg PUBLIC "-//W3C//DTD SVG 1.1//EN" "http://www.w3.org/Graphics/SVG/1.1/DTD/svg11.dtd"><svg class="icon" width="200px" height="200.00px" viewBox="0 0 1024 1024" version="1.1" xmlns="http://www.w3.org/2000/svg"><path d="M387.1 400h-39.8v18.5l-79.3 20-39 61.1v61.9h152.5V541H403v-9h77.6v11H575v-11h78v11h22v22.5h153.6v-65.9l-32.5-61.1-67.6-20V400h-35.4v18.5h-306z" fill="#FFFFFF" /><path d="M831.1 568H672.5v-22.5h-22v-11h-73v11h-99.4v-11h-72.6v9H384V564H226.5v-65.1l39.9-62.6 78.4-19.8v-19.1h44.7V416h301.1v-18.5H731v19.1l66.8 19.8 33.3 62.6v69z m-153.6-5h148.6v-62.8l-31.8-59.6-68.3-20.2v-17.9h-30.4V421h-311v-18.5h-34.7v17.9l-80.3 20.2-38.1 59.7V559H379v-20.5h21.5v-9h82.6v11h89.4v-11h83v11h22V563z" fill="#333333" /><path d="M284.5 448.5H780v30.1H284.5z" fill="#BC2000" /><path d="M782.5 481.1H282V446h500.5v35.1z m-495.5-5h490.5V451H287v25.1z" fill="#333333" /><path d="M373.1 425h58.4v8.5h-58.4z" fill="#BC2000" /><path d="M434 436h-63.4v-13.5H434V436z m-58.4-5H429v-3.5h-53.4v3.5z" fill="#333333" /><path d="M636 425h59.7v10H636z" fill="#BC2000" /><path d="M698.3 437.5h-64.7v-15h64.7v15z m-59.8-5h54.7v-5h-54.7v5z" fill="#333333" /><path d="M232 561.5v15l65.5 22.5h480.3l50.8-18.8v-14.7H675V543h-22v-11h-78v11h-94.4v-11H403v9h-21.5v20.5z" fill="#BC2000" /><path d="M778.3 601.5H297.1l-67.6-23.2V559H379v-20.5h21.5v-9h82.6v11h89.4v-11h83v11h22V563h153.6v19l-52.8 19.5z m-480.4-5h479.4l48.8-18V568H672.5v-22.5h-22v-11h-73v11h-99.4v-11h-72.6v9H384V564H234.5v10.7l63.4 21.8z" fill="#333333" /><path d="M686.9 418.5H393.6V310.2c0-8.1 6.6-14.7 14.7-14.7h263.9c8.1 0 14.7 6.6 14.7 14.7v108.3z" fill="#FFE600" /><path d="M689.4 421H391.1V310.2c0-9.5 7.7-17.2 17.2-17.2h263.9c9.5 0 17.2 7.7 17.2 17.2V421z m-293.3-5h288.3V310.2c0-6.7-5.5-12.2-12.2-12.2H408.3c-6.7 0-12.2 5.5-12.2 12.2V416z" fill="#333333" /><path d="M414.6 418.5v-86.7c0-6.5 5.6-11.8 12.6-11.8h226.1c6.9 0 12.6 5.3 12.6 11.8v86.7" fill="#D36E00" /><path d="M668.4 418.5h-5v-86.7c0-5.1-4.5-9.3-10.1-9.3H427.2c-5.6 0-10.1 4.2-10.1 9.3v86.7h-5v-86.7c0-7.9 6.8-14.3 15.1-14.3h226.1c8.3 0 15.1 6.4 15.1 14.3v86.7z" fill="#333333" /><path d="M584.6 377.5h-98.2c-6.9 0-12.7 4.9-13.9 11.7l-7 41.3h140l-7-41.3c-1.2-6.8-7-11.7-13.9-11.7z" fill="#BC2000" /><path d="M608.5 433h-146l7.5-44.2c1.4-8 8.2-13.8 16.3-13.8h98.2c8.1 0 15 5.8 16.3 13.8l7.7 44.2z m-140-5h134.1l-6.5-38.4c-0.9-5.6-5.7-9.6-11.4-9.6h-98.2c-5.7 0-10.5 4-11.4 9.6l-6.6 38.4z" fill="#333333" /><path d="M470.5 576.3h-58.1c-5.6 0-10.1-4.5-10.1-10.1v-29.1h78.3v29.1c0 5.6-4.5 10.1-10.1 10.1z" fill="#3F3F3F" /><path d="M470.5 578.8h-58.1c-7 0-12.6-5.7-12.6-12.6v-31.6h83.3v31.6c0 7-5.7 12.6-12.6 12.6z m-65.7-39.1v26.6c0 4.2 3.4 7.6 7.6 7.6h58.1c4.2 0 7.6-3.4 7.6-7.6v-26.6h-73.3z" fill="#333333" /><path d="M642.9 576.3h-57.8c-5.6 0-10.1-4.5-10.1-10.1v-29.1h78v29.1c0 5.6-4.5 10.1-10.1 10.1z" fill="#3F3F3F" /><path d="M642.9 578.8h-57.8c-7 0-12.6-5.7-12.6-12.6v-31.6h83v31.6c0 7-5.7 12.6-12.6 12.6z m-65.4-39.1v26.6c0 4.2 3.4 7.6 7.6 7.6h57.8c4.2 0 7.6-3.4 7.6-7.6v-26.6h-73z" fill="#333333" /><path d="M309.1 460.1h448.1v6.8H309.1z" fill="#FFFFFF" /><path d="M759.6 469.4h-453v-11.8h453.1v11.8z m-448-5h443.1v-1.8H311.6v1.8z" fill="#333333" /><path d="M409.8 546.8h18.5v9.2h-18.5z" fill="#FFFFFF" /><path d="M430.8 558.5h-23.5v-14.2h23.5v14.2z m-18.5-5h13.5v-4.2h-13.5v4.2z" fill="#333333" /><path d="M436.4 546.8h18.5v9.2h-18.5z" fill="#FFFFFF" /><path d="M457.4 558.5h-23.5v-14.2h23.5v14.2z m-18.5-5h13.5v-4.2h-13.5v4.2z" fill="#333333" /><path d="M463.6 546.8h9.2v9.2h-9.2z" fill="#FFFFFF" /><path d="M475.3 558.5h-14.2v-14.2h14.2v14.2z m-9.2-5h4.2v-4.2h-4.2v4.2z" fill="#333333" /><path d="M409.8 560.9h18.5v9.2h-18.5z" fill="#FFFFFF" /><path d="M430.8 572.6h-23.5v-14.2h23.5v14.2z m-18.5-5h13.5v-4.2h-13.5v4.2z" fill="#333333" /><path d="M436.4 560.9h18.5v9.2h-18.5z" fill="#FFFFFF" /><path d="M457.4 572.6h-23.5v-14.2h23.5v14.2z m-18.5-5h13.5v-4.2h-13.5v4.2z" fill="#333333" /><path d="M463.6 560.9h9.2v9.2h-9.2z" fill="#FFFFFF" /><path d="M475.3 572.6h-14.2v-14.2h14.2v14.2z m-9.2-5h4.2v-4.2h-4.2v4.2z" fill="#333333" /><path d="M582.5 546.8H601v9.2h-18.5z" fill="#FFFFFF" /><path d="M603.5 558.5H580v-14.2h23.5v14.2z m-18.5-5h13.5v-4.2H585v4.2z" fill="#333333" /><path d="M609.1 546.8h18.5v9.2h-18.5z" fill="#FFFFFF" /><path d="M630.1 558.5h-23.5v-14.2h23.5v14.2z m-18.5-5h13.5v-4.2h-13.5v4.2z" fill="#333333" /><path d="M636.3 546.8h9.2v9.2h-9.2z" fill="#FFFFFF" /><path d="M648 558.5h-14.2v-14.2H648v14.2z m-9.2-5h4.2v-4.2h-4.2v4.2z" fill="#333333" /><path d="M582.5 560.9H601v9.2h-18.5z" fill="#FFFFFF" /><path d="M603.5 572.6H580v-14.2h23.5v14.2z m-18.5-5h13.5v-4.2H585v4.2z" fill="#333333" /><path d="M609.1 560.9h18.5v9.2h-18.5z" fill="#FFFFFF" /><path d="M630.1 572.6h-23.5v-14.2h23.5v14.2z m-18.5-5h13.5v-4.2h-13.5v4.2z" fill="#333333" /><path d="M636.3 560.9h9.2v9.2h-9.2z" fill="#FFFFFF" /><path d="M648 572.6h-14.2v-14.2H648v14.2z m-9.2-5h4.2v-4.2h-4.2v4.2z" fill="#333333" /><path d="M429.2 615H214.7c-10.8 0-19.5-8.7-19.5-19.5v-61c0-10.8 8.7-19.5 19.5-19.5h214.5c10.8 0 19.5 8.7 19.5 19.5v61c0 10.8-8.8 19.5-19.5 19.5z" fill="#BC2000" /><path d="M429.2 617.5H214.7c-12.1 0-22-9.9-22-22v-61c0-12.1 9.9-22 22-22h214.5c12.1 0 22 9.9 22 22v61c0 12.1-9.9 22-22 22z m-214.5-100c-9.4 0-17 7.6-17 17v61c0 9.4 7.6 17 17 17h214.5c9.4 0 17-7.6 17-17v-61c0-9.4-7.6-17-17-17H214.7z" fill="#333333" /><path d="M425.9 605.7H218c-7.6 0-13.7-6.1-13.7-13.7v-54c0-7.6 6.1-13.7 13.7-13.7h207.9c7.6 0 13.7 6.1 13.7 13.7v54c0 7.5-6.2 13.7-13.7 13.7z" fill="#FFE600" /><path d="M425.9 608.2H218c-8.9 0-16.2-7.3-16.2-16.2v-54c0-8.9 7.3-16.2 16.2-16.2h207.9c8.9 0 16.2 7.3 16.2 16.2v54c0 8.9-7.3 16.2-16.2 16.2zM218 526.8c-6.2 0-11.2 5-11.2 11.2v54c0 6.2 5 11.2 11.2 11.2h207.9c6.2 0 11.2-5 11.2-11.2v-54c0-6.2-5-11.2-11.2-11.2H218z" fill="#333333" /><path d="M412 560.9h-39.9c-8 0-14.5-6.5-14.5-14.5s6.5-14.5 14.5-14.5H412c8 0 14.5 6.5 14.5 14.5s-6.5 14.5-14.5 14.5z" fill="#BC2000" /><path d="M412 563.4h-39.9c-9.4 0-17-7.6-17-17s7.6-17 17-17H412c9.4 0 17 7.6 17 17s-7.6 17-17 17z m-39.9-28.9c-6.6 0-12 5.4-12 12s5.4 12 12 12H412c6.6 0 12-5.4 12-12s-5.4-12-12-12h-39.9z" fill="#333333" /><path d="M343.6 596.8h-64.9c-5.5 0-10-4.5-10-10v-2.7c0-5.5 4.5-10 10-10h64.9c5.5 0 10 4.5 10 10v2.7c0 5.5-4.5 10-10 10z" fill="#BC2000" /><path d="M343.6 599.3h-64.9c-6.9 0-12.5-5.6-12.5-12.5v-2.7c0-6.9 5.6-12.5 12.5-12.5h64.9c6.9 0 12.5 5.6 12.5 12.5v2.7c0 6.9-5.6 12.5-12.5 12.5z m-64.9-22.7c-4.1 0-7.5 3.4-7.5 7.5v2.7c0 4.1 3.4 7.5 7.5 7.5h64.9c4.1 0 7.5-3.4 7.5-7.5v-2.7c0-4.1-3.4-7.5-7.5-7.5h-64.9z" fill="#333333" /><path d="M376 546.3m-8.3 0a8.3 8.3 0 1 0 16.6 0 8.3 8.3 0 1 0-16.6 0Z" fill="#3F3F3F" /><path d="M376 557.2c-6 0-10.8-4.9-10.8-10.8s4.9-10.8 10.8-10.8c6 0 10.8 4.9 10.8 10.8s-4.9 10.8-10.8 10.8z m0-16.7c-3.2 0-5.8 2.6-5.8 5.8s2.6 5.8 5.8 5.8c3.2 0 5.8-2.6 5.8-5.8s-2.6-5.8-5.8-5.8z" fill="#333333" /><path d="M409 546.3m-8.3 0a8.3 8.3 0 1 0 16.6 0 8.3 8.3 0 1 0-16.6 0Z" fill="#3F3F3F" /><path d="M409 557.2c-6 0-10.8-4.9-10.8-10.8s4.9-10.8 10.8-10.8c6 0 10.8 4.9 10.8 10.8s-4.9 10.8-10.8 10.8z m0-16.7c-3.2 0-5.8 2.6-5.8 5.8s2.6 5.8 5.8 5.8c3.2 0 5.8-2.6 5.8-5.8s-2.6-5.8-5.8-5.8z" fill="#333333" /><path d="M376 585.5m-8.3 0a8.3 8.3 0 1 0 16.6 0 8.3 8.3 0 1 0-16.6 0Z" fill="#3F3F3F" /><path d="M376 596.3c-6 0-10.8-4.9-10.8-10.8s4.9-10.8 10.8-10.8c6 0 10.8 4.9 10.8 10.8s-4.9 10.8-10.8 10.8z m0-16.7c-3.2 0-5.8 2.6-5.8 5.8s2.6 5.8 5.8 5.8c3.2 0 5.8-2.6 5.8-5.8s-2.6-5.8-5.8-5.8z" fill="#333333" /><path d="M409 585.5m-8.3 0a8.3 8.3 0 1 0 16.6 0 8.3 8.3 0 1 0-16.6 0Z" fill="#3F3F3F" /><path d="M409 596.3c-6 0-10.8-4.9-10.8-10.8s4.9-10.8 10.8-10.8c6 0 10.8 4.9 10.8 10.8s-4.9 10.8-10.8 10.8z m0-16.7c-3.2 0-5.8 2.6-5.8 5.8s2.6 5.8 5.8 5.8c3.2 0 5.8-2.6 5.8-5.8s-2.6-5.8-5.8-5.8z" fill="#333333" /><path d="M299.2 589.7h-14c-1.9 0-3.5-1.6-3.5-3.5s1.6-3.5 3.5-3.5h14c1.9 0 3.5 1.6 3.5 3.5 0.1 2-1.5 3.5-3.5 3.5z" fill="#3F3F3F" /><path d="M299.2 592.2h-14c-3.3 0-6-2.7-6-6s2.7-6 6-6h14c3.3 0 6 2.7 6 6s-2.6 6-6 6z m-14-7c-0.6 0-1 0.4-1 1s0.4 1 1 1h14c0.6 0 1-0.4 1-1s-0.4-1-1-1h-14z" fill="#333333" /><path d="M337 589.7h-14c-1.9 0-3.5-1.6-3.5-3.5s1.6-3.5 3.5-3.5h14c1.9 0 3.5 1.6 3.5 3.5 0 2-1.6 3.5-3.5 3.5z" fill="#3F3F3F" /><path d="M337 592.2h-14c-3.3 0-6-2.7-6-6s2.7-6 6-6h14c3.3 0 6 2.7 6 6s-2.7 6-6 6z m-14-7c-0.6 0-1 0.4-1 1s0.4 1 1 1h14c0.6 0 1-0.4 1-1s-0.4-1-1-1h-14z" fill="#333333" /><path d="M264 556.3h-18.4v-18.2h-13.5v18.2h-18.3v13.9h18.3v18.2h13.5v-18.2H264z" fill="#3F3F3F" /><path d="M248.1 590.9h-18.5v-18.2h-18.4v-18.9h18.4v-18.2h18.5v18.2h18.4v18.9h-18.4v18.2z m-13.5-5h8.5v-18.2h18.4v-8.9h-18.4v-18.2h-8.5v18.2h-18.4v8.9h18.4v18.2z" fill="#333333" /><path d="M499.3 615H284.8c-10.8 0-19.5-8.7-19.5-19.5v-61c0-10.8 8.7-19.5 19.5-19.5h214.5c10.8 0 19.5 8.7 19.5 19.5v61c0 10.8-8.7 19.5-19.5 19.5z" fill="#BC2000" /><path d="M499.3 617.5H284.8c-12.1 0-22-9.9-22-22v-61c0-12.1 9.9-22 22-22h214.5c12.1 0 22 9.9 22 22v61c0 12.1-9.9 22-22 22z m-214.5-100c-9.4 0-17 7.6-17 17v61c0 9.4 7.6 17 17 17h214.5c9.4 0 17-7.6 17-17v-61c0-9.4-7.6-17-17-17H284.8z" fill="#333333" /><path d="M496 605.7H288.1c-7.6 0-13.7-6.1-13.7-13.7v-54c0-7.6 6.1-13.7 13.7-13.7H496c7.6 0 13.7 6.1 13.7 13.7v54c0 7.5-6.1 13.7-13.7 13.7z" fill="#FFE600" /><path d="M496 608.2H288.1c-8.9 0-16.2-7.3-16.2-16.2v-54c0-8.9 7.3-16.2 16.2-16.2H496c8.9 0 16.2 7.3 16.2 16.2v54c0 8.9-7.3 16.2-16.2 16.2z m-207.9-81.4c-6.2 0-11.2 5-11.2 11.2v54c0 6.2 5 11.2 11.2 11.2H496c6.2 0 11.2-5 11.2-11.2v-54c0-6.2-5-11.2-11.2-11.2H288.1z" fill="#333333" /><path d="M482.2 560.9h-39.9c-8 0-14.5-6.5-14.5-14.5s6.5-14.5 14.5-14.5h39.9c8 0 14.5 6.5 14.5 14.5-0.1 8-6.6 14.5-14.5 14.5z" fill="#BC2000" /><path d="M482.2 563.4h-39.9c-9.4 0-17-7.6-17-17s7.6-17 17-17h39.9c9.4 0 17 7.6 17 17-0.1 9.4-7.7 17-17 17z m-39.9-28.9c-6.6 0-12 5.4-12 12s5.4 12 12 12h39.9c6.6 0 12-5.4 12-12s-5.4-12-12-12h-39.9z" fill="#333333" /><path d="M413.7 596.8h-64.9c-5.5 0-10-4.5-10-10v-2.7c0-5.5 4.5-10 10-10h64.9c5.5 0 10 4.5 10 10v2.7c0 5.5-4.5 10-10 10z" fill="#BC2000" /><path d="M413.7 599.3h-64.9c-6.9 0-12.5-5.6-12.5-12.5v-2.7c0-6.9 5.6-12.5 12.5-12.5h64.9c6.9 0 12.5 5.6 12.5 12.5v2.7c0 6.9-5.6 12.5-12.5 12.5z m-64.9-22.7c-4.1 0-7.5 3.4-7.5 7.5v2.7c0 4.1 3.4 7.5 7.5 7.5h64.9c4.1 0 7.5-3.4 7.5-7.5v-2.7c0-4.1-3.4-7.5-7.5-7.5h-64.9z" fill="#333333" /><path d="M446.1 546.3m-8.3 0a8.3 8.3 0 1 0 16.6 0 8.3 8.3 0 1 0-16.6 0Z" fill="#3F3F3F" /><path d="M446.1 557.2c-6 0-10.8-4.9-10.8-10.8s4.9-10.8 10.8-10.8c6 0 10.8 4.9 10.8 10.8s-4.8 10.8-10.8 10.8z m0-16.7c-3.2 0-5.8 2.6-5.8 5.8s2.6 5.8 5.8 5.8c3.2 0 5.8-2.6 5.8-5.8s-2.6-5.8-5.8-5.8z" fill="#333333" /><path d="M479.1 546.3m-8.3 0a8.3 8.3 0 1 0 16.6 0 8.3 8.3 0 1 0-16.6 0Z" fill="#3F3F3F" /><path d="M479.1 557.2c-6 0-10.8-4.9-10.8-10.8s4.9-10.8 10.8-10.8c6 0 10.8 4.9 10.8 10.8s-4.8 10.8-10.8 10.8z m0-16.7c-3.2 0-5.8 2.6-5.8 5.8s2.6 5.8 5.8 5.8c3.2 0 5.8-2.6 5.8-5.8s-2.6-5.8-5.8-5.8z" fill="#333333" /><path d="M446.1 585.5m-8.3 0a8.3 8.3 0 1 0 16.6 0 8.3 8.3 0 1 0-16.6 0Z" fill="#3F3F3F" /><path d="M446.1 596.3c-6 0-10.8-4.9-10.8-10.8s4.9-10.8 10.8-10.8c6 0 10.8 4.9 10.8 10.8s-4.8 10.8-10.8 10.8z m0-16.7c-3.2 0-5.8 2.6-5.8 5.8s2.6 5.8 5.8 5.8c3.2 0 5.8-2.6 5.8-5.8s-2.6-5.8-5.8-5.8z" fill="#333333" /><path d="M479.1 585.5m-8.3 0a8.3 8.3 0 1 0 16.6 0 8.3 8.3 0 1 0-16.6 0Z" fill="#3F3F3F" /><path d="M479.1 596.3c-6 0-10.8-4.9-10.8-10.8s4.9-10.8 10.8-10.8c6 0 10.8 4.9 10.8 10.8s-4.8 10.8-10.8 10.8z m0-16.7c-3.2 0-5.8 2.6-5.8 5.8s2.6 5.8 5.8 5.8c3.2 0 5.8-2.6 5.8-5.8s-2.6-5.8-5.8-5.8z" fill="#333333" /><path d="M369.4 589.7h-14c-1.9 0-3.5-1.6-3.5-3.5s1.6-3.5 3.5-3.5h14c1.9 0 3.5 1.6 3.5 3.5 0 2-1.6 3.5-3.5 3.5z" fill="#3F3F3F" /><path d="M369.4 592.2h-14c-3.3 0-6-2.7-6-6s2.7-6 6-6h14c3.3 0 6 2.7 6 6s-2.7 6-6 6z m-14-7c-0.6 0-1 0.4-1 1s0.4 1 1 1h14c0.6 0 1-0.4 1-1s-0.4-1-1-1h-14z" fill="#333333" /><path d="M407.1 589.7h-14c-1.9 0-3.5-1.6-3.5-3.5s1.6-3.5 3.5-3.5h14c1.9 0 3.5 1.6 3.5 3.5 0 2-1.5 3.5-3.5 3.5z" fill="#3F3F3F" /><path d="M407.1 592.2h-14c-3.3 0-6-2.7-6-6s2.7-6 6-6h14c3.3 0 6 2.7 6 6s-2.6 6-6 6z m-14-7c-0.6 0-1 0.4-1 1s0.4 1 1 1h14c0.6 0 1-0.4 1-1s-0.4-1-1-1h-14z" fill="#333333" /><path d="M334.1 556.3h-18.3v-18.2h-13.5v18.2h-18.4v13.9h18.4v18.2h13.5v-18.2h18.3z" fill="#3F3F3F" /><path d="M318.3 590.9h-18.5v-18.2h-18.4v-18.9h18.4v-18.2h18.5v18.2h18.4v18.9h-18.4v18.2z m-13.5-5h8.5v-18.2h18.4v-8.9h-18.4v-18.2h-8.5v18.2h-18.4v8.9h18.4v18.2z" fill="#333333" /></svg>